<?xml version="1.0" encoding="UTF-8"?>
<svg width="191px" height="42px" viewBox="0 0 191 42" version="1.1" xmlns="http://www.w3.org/2000/svg" xmlns:xlink="http://www.w3.org/1999/xlink">
    <!-- Generator: Sketch 49 (51002) - http://www.bohemiancoding.com/sketch -->
    <title>Group 7</title>
    <desc>Created with Sketch.</desc>
    <defs>
        <polygon id="path-1" points="0.22295683 0.177509434 13.6635942 0.177509434 13.6635942 25.7715804 0.22295683 25.7715804"></polygon>
        <polygon id="path-3" points="0.629592791 0.0890083019 13.3441994 0.0890083019 13.3441994 19.0165857 0.629592791 19.0165857"></polygon>
    </defs>
    <g id="Page-1" stroke="none" stroke-width="1" fill="none" fill-rule="evenodd">
        <g id="1" transform="translate(-155.000000, -29.000000)">
            <g id="Group-7" transform="translate(155.000000, 29.000000)">
                <g id="Page-1" fill="#61B9AA">
                    <path d="M29.6428525,6.12685321 C29.3279082,6.12685321 28.9583147,6.24346604 28.5501302,6.50780532 L28.5465042,6.50932305 C28.1240747,6.78555127 27.6604641,7.21431211 27.1681045,7.83000761 C27.1453124,7.86567444 27.1178584,7.90007649 27.0929944,7.93397263 C27.0898864,7.93928471 27.0844474,7.94763226 27.0805624,7.95243843 C27.0585473,7.98228727 27.0352373,8.00935359 27.0155533,8.03793764 C27.0111503,8.04274381 27.0075243,8.04653816 27.0046753,8.05286206 C26.9818832,8.08448159 26.9601272,8.11281269 26.9399252,8.13836127 C26.9350042,8.14620292 26.9280112,8.151515 26.9241262,8.15733299 C26.9052192,8.18439931 26.8824271,8.21171858 26.8632611,8.24232629 C26.8567861,8.2486502 26.8526421,8.25649184 26.8503111,8.25952731 C26.824152,8.29165276 26.805504,8.31922499 26.783748,8.34553244 C26.780122,8.35312113 26.776237,8.35565069 26.772352,8.35843321 C26.750337,8.39030569 26.7283219,8.41939566 26.7039759,8.45025632 C26.7039759,8.45506249 26.6990549,8.45506249 26.6951699,8.45809797 C26.6734139,8.49325889 26.6472548,8.52411955 26.6239448,8.55750977 L26.6208368,8.55750977 C25.8474618,9.57995891 25.0844469,10.5282919 24.330497,11.4156624 C24.1512687,11.6210629 23.9767025,11.8277281 23.8013593,12.0257928 C23.7987693,12.0257928 23.7987693,12.0288283 23.7959203,12.0316108 C23.7736463,12.0561476 23.7534442,12.0816962 23.7290982,12.1082566 C23.7257312,12.1110391 23.7187382,12.1171101 23.7153712,12.1254576 C23.6969822,12.146453 23.6778161,12.1664365 23.6578731,12.1886967 C23.6490671,12.1940088 23.6457001,12.2053918 23.6371531,12.2081743 C23.6239441,12.2284108 23.6055551,12.2494062 23.586648,12.2698956 C23.57836,12.2767254 23.57059,12.2858319 23.562043,12.2929146 C23.547798,12.3131511 23.526042,12.3323758 23.5136099,12.3533712 C23.5048039,12.3591892 23.4978109,12.3680426 23.4897819,12.3791727 C23.4706159,12.3968797 23.4558529,12.418128 23.4369458,12.4348231 C23.4335788,12.440894 23.4211468,12.4479768 23.4138948,12.4578421 C23.3970598,12.4788375 23.3841098,12.4970503 23.3633898,12.5170339 C23.3574328,12.5228519 23.3504397,12.5342349 23.3411157,12.5403059 C23.3227267,12.5615542 23.3035607,12.585585 23.2838767,12.6063274 C23.2812867,12.6106277 23.2729986,12.6161927 23.2675596,12.620493 C23.2468396,12.6462945 23.2214576,12.6748786 23.1958166,12.701439 C23.1919315,12.701439 23.1919315,12.7052333 23.1919315,12.7052333 C23.1696575,12.730276 23.1479015,12.7538009 23.1245915,12.7808672 C23.1142314,12.7912384 23.1054254,12.799839 23.0958424,12.8132456 C23.0821154,12.8238698 23.0663164,12.8430945 23.0505174,12.8549834 C23.0406754,12.8706667 23.0287613,12.8792672 23.0194373,12.8974801 C23.0070053,12.9078513 22.9917243,12.9220168 22.9803283,12.9346646 C22.9684143,12.9488302 22.9559823,12.9622369 22.9461402,12.9723551 C22.9344852,12.9872795 22.9184272,12.9979037 22.9085852,13.0151047 C22.8971892,13.0239582 22.8850162,13.0381237 22.8746562,13.0515304 C22.8622241,13.0672137 22.8453891,13.0778379 22.8355471,13.0899798 C22.8236331,13.1033865 22.8122371,13.1160343 22.7974741,13.1304528 C22.787114,13.140571 22.774164,13.1504363 22.764322,13.1646019 C22.75189,13.1802852 22.735573,13.1916682 22.725213,13.2093751 C22.712522,13.2205052 22.7070829,13.2278409 22.6972409,13.2377062 C22.6793699,13.2538954 22.6643479,13.2721083 22.6490669,13.2882975 C22.6418149,13.2948743 22.6387069,13.3029689 22.6283468,13.308281 C22.6096988,13.3275057 22.5959718,13.3469833 22.5760288,13.3631725 C22.5726618,13.3672198 22.5685178,13.3710142 22.5651508,13.3788558 C22.4553346,13.4921802 22.3452595,13.608793 22.2349254,13.7200938 C22.2292274,13.724647 22.2292274,13.724647 22.2261193,13.7274295 C22.2072123,13.7494367 22.1849383,13.7676496 22.1642183,13.7845976 C22.1613693,13.7926922 22.1582613,13.7969925 22.1541173,13.799522 C22.1362462,13.8189997 22.1152672,13.8382243 22.0971372,13.8582079 C22.0935112,13.8673143 22.0888492,13.8685791 22.0847052,13.8726264 C22.0624311,13.8926099 22.0471501,13.9128464 22.0246171,13.9300475 C22.0199551,13.9333359 22.0165881,13.9371302 22.0134801,13.9406716 C21.9932781,13.9629318 21.971004,13.9856978 21.951838,14.0066932 L21.946917,14.0102346 C20.6915424,15.268186 19.4092319,16.3756284 18.0383432,17.3834061 L18.0329041,17.3834061 C18.0106301,17.4006071 17.9888741,17.4193259 17.9621971,17.4350092 C17.9621971,17.4395624 17.9590891,17.4395624 17.9546861,17.4413331 C17.931376,17.4557516 17.908843,17.4772529 17.885533,17.4924303 C17.88113,17.4924303 17.88113,17.4967305 17.879058,17.4967305 C17.8549709,17.5144375 17.8326969,17.5316385 17.8099049,17.5488395 C17.8055019,17.5488395 17.8018759,17.5508632 17.8018759,17.5546575 C17.7783068,17.568823 17.7531838,17.5885536 17.7283198,17.6032251 L17.7254708,17.6062606 C17.6003736,17.6953012 17.4742405,17.7871243 17.3488843,17.875659 C17.3452583,17.875659 17.3413733,17.8786944 17.3413733,17.8786944 C17.3216893,17.8918482 17.3033002,17.9060137 17.2836162,17.9204322 C17.2717022,17.9267561 17.2641912,17.9308034 17.2577162,17.9366214 C17.2380322,17.9502811 17.2237871,17.9611582 17.2038441,17.9753237 C17.1978871,17.9773474 17.1888221,17.9831654 17.1792391,17.9882245 C15.6283452,14.9755156 14.6182439,11.6420582 13.888381,7.44652594 C13.2714422,3.92739866 12.0448167,2.16378772 7.8339895,0.930626026 C5.71355387,0.305318188 4.08729085,0 2.88475236,0 C-0.561246912,0 -0.577045931,2.47973007 1.04869908,7.02383606 C6.19684847,21.459796 18.3732306,29.5204997 25.162924,32.1856467 C27.3475917,33.0439273 29.1074989,31.7981177 26.3877365,29.154472 C24.5695543,27.4935613 23.0088183,25.9411688 21.6594266,24.4128072 C27.0204743,18.5032434 29.7674317,12.3085979 30.7094159,8.30708309 C30.7653599,8.06222144 30.795922,7.82014232 30.795922,7.59627604 C30.792555,6.73040681 30.3561394,6.12685321 29.6428525,6.12685321" id="Fill-8"></path>
                    <path d="M16.6759739,29.3602537 C16.6435257,29.3350357 16.61082,29.3080347 16.5781143,29.2828167 L16.5405157,29.2553062 L16.5418033,29.2540325 C14.1012372,27.3565705 11.6138016,25.0375351 9.326978,22.2727273 C8.2906967,22.687423 7.19956254,23.0883634 6.04172936,23.4819168 C2.35448391,24.7405233 0.691901389,26.18559 0.191529975,30.1814938 C-0.409533781,34.9920149 0.407336071,36.9090909 2.59655758,36.9090909 C3.00215973,36.9090909 3.45566156,36.8380221 3.95165504,36.7152436 C5.10202,36.4286756 6.49883654,35.8247177 8.1382418,34.981571 C11.3846041,33.3133634 14.2176386,31.3983251 16.6811244,29.3579612 L16.6798368,29.3569423 C16.6785492,29.3579612 16.6772615,29.3592348 16.6759739,29.3602537" id="Fill-10"></path>
                </g>
                <g id="Page-1" transform="translate(38.359833, 7.132075)">
                    <path d="M6.40060457,25.0065781 C6.99775335,25.0065781 7.58723818,24.9127517 8.17033639,24.7219291 C8.75279594,24.5330083 9.27905325,24.2553328 9.74783101,23.8889026 C10.2172474,23.5237404 10.6004445,23.0558762 10.8986995,22.4859442 C11.1975933,21.916646 11.3464015,21.2509857 11.3464015,20.4908649 L11.3464015,13.4754385 C11.3464015,12.7146838 11.1975933,12.0496574 10.8986995,11.4797253 C10.6004445,10.9104272 10.2172474,10.4419291 9.74783101,10.0774008 C9.27905325,9.71223849 8.75279594,9.43456302 8.17033639,9.24374038 C7.58723818,9.0535517 6.99775335,8.95909132 6.40060457,8.95909132 C5.8034558,8.95909132 5.20630703,9.04657811 4.60915826,9.22091774 C4.01264815,9.39715925 3.48000422,9.66025358 3.0105878,10.0114687 C2.54181005,10.3620498 2.15797432,10.8153328 1.85971926,11.3694158 C1.56082554,11.9266687 1.41137869,12.5834536 1.41137869,13.3435743 L1.41137869,20.4908649 C1.41137869,21.2509857 1.55380026,21.916646 1.8373661,22.4859442 C2.12220926,23.0558762 2.49901971,23.5237404 2.96843613,23.8889026 C3.43657522,24.2553328 3.96985781,24.5330083 4.56700658,24.7219291 C5.16351669,24.9127517 5.77535468,25.0065781 6.40060457,25.0065781 Z M1.41137869,7.68672906 C1.41137869,8.09626868 1.45416903,8.41768755 1.53974971,8.65161962 C1.62469172,8.88618566 1.86546722,9.00220075 2.26463083,9.00220075 C2.43515353,9.00220075 2.61908813,8.94514415 2.81962793,8.82722717 C3.01761308,8.70994415 3.26605252,8.57808 3.56494624,8.43226868 C3.86320129,8.28645736 4.24001175,8.15459321 4.6953776,8.03731019 C5.14946613,7.92129509 5.71851378,7.86297057 6.40060457,7.86297057 C7.22447828,7.86297057 7.99981369,7.98722717 8.72469482,8.23447245 C9.44957595,8.48425358 10.0824898,8.8418083 10.6215203,9.30967245 C11.1618282,9.77817057 11.5954796,10.3620498 11.9224744,11.0632121 C12.2494692,11.7643743 12.4129666,12.5695064 12.4129666,13.4754385 L12.4129666,20.4908649 C12.4129666,21.396797 12.2494692,22.2012951 11.9224744,22.9030913 C11.5954796,23.6042536 11.1618282,24.1894008 10.6215203,24.655997 C10.0824898,25.1244951 9.44957595,25.4833177 8.72469482,25.731197 C7.99981369,25.9784423 7.22447828,26.1033328 6.40060457,26.1033328 C5.57545354,26.1033328 4.79373152,25.9784423 4.05543849,25.731197 C3.31586814,25.4833177 2.66954241,25.1244951 2.11518398,24.655997 C1.56082554,24.1894008 1.12653553,23.6042536 0.814868575,22.9030913 C0.501924299,22.2012951 0.345452161,21.396797 0.345452161,20.4908649 L0.345452161,1.28561208 C0.345452161,1.08084226 0.4450834,0.977506415 0.643707216,0.977506415 L1.11376229,0.977506415 C1.31110878,0.977506415 1.41137869,1.08084226 1.41137869,1.28561208 L1.41137869,7.68672906 Z" id="Fill-1" fill="#61B9AA"></path>
                    <g id="Group-5" transform="translate(0.000000, 0.456516)" fill="#61B9AA">
                        <path d="M6.40060457,8.84618264 C5.83922086,8.84618264 5.26953455,8.9292317 4.70687351,9.09406189 C4.15251508,9.25699019 3.6524429,9.50486943 3.21943021,9.82819019 C2.7934428,10.1470732 2.43834684,10.5648543 2.16436093,11.07456 C1.894207,11.57856 1.75689471,12.1884317 1.75689471,12.8870581 L1.75689471,20.0343487 C1.75689471,20.7380468 1.88845904,21.3580619 2.14775573,21.8779109 C2.40769108,22.398394 2.75576175,22.8313902 3.18174916,23.1623185 C3.61603918,23.5027562 4.11738868,23.7633147 4.67238578,23.9389223 C5.76194279,24.2856996 6.94538308,24.3040845 8.06304121,23.9389223 C8.60462641,23.7633147 9.09958929,23.5027562 9.53451797,23.1629525 C9.96178271,22.8294883 10.318156,22.3964921 10.5921419,21.8703034 C10.8635731,21.3542581 11.0015241,20.7355109 11.0015241,20.0343487 L11.0015241,13.0189223 C11.0015241,12.317126 10.8635731,11.6990128 10.5921419,11.1823336 C10.318156,10.6567789 9.96178271,10.2231487 9.53451797,9.89095245 C9.10022795,9.55178264 8.60462641,9.28995623 8.06304121,9.11371472 C7.5182627,8.93620528 6.95943364,8.84618264 6.40060457,8.84618264 Z M6.40060457,24.8936694 C5.74086695,24.8936694 5.0881546,24.7922355 4.46098872,24.5919034 C3.82807489,24.3915713 3.25391794,24.0923411 2.75448443,23.7011864 C2.24738697,23.3081298 1.83481145,22.7952543 1.52761513,22.1815789 C1.22169613,21.5672694 1.06586266,20.8439185 1.06586266,20.0343487 L1.06586266,12.8870581 C1.06586266,12.0736845 1.2306374,11.3566732 1.55443893,10.7512392 C1.87696313,10.1540468 2.29656392,9.65892226 2.80302272,9.28171472 C3.30181758,8.90640906 3.87725185,8.62302792 4.51080434,8.43537509 C5.77024539,8.06704302 7.05395558,8.06197132 8.27827023,8.46136755 C8.89649484,8.66423547 9.46298785,8.96346566 9.96178271,9.35018264 C10.4663255,9.74387321 10.884649,10.2529449 11.2052572,10.8640845 C11.5284201,11.4815638 11.6919175,12.2055487 11.6919175,13.0189223 L11.6919175,20.0343487 C11.6919175,20.8470883 11.5284201,21.5717072 11.2052572,22.1879185 C10.884649,22.7996921 10.4663255,23.3093977 9.96178271,23.7030883 C9.46362651,24.0904392 8.89649484,24.3903034 8.27763157,24.5919034 C7.66451625,24.7922355 7.03287974,24.8936694 6.40060457,24.8936694 Z M0.693522836,0.864597736 L0.690968189,20.0343487 C0.690968189,20.8889298 0.839137723,21.6534883 1.1303675,22.3071034 C1.42031995,22.9581826 1.82714751,23.50656 2.33935426,23.9376543 C2.86050228,24.3776242 3.47489492,24.7180619 4.16592698,24.9500921 C5.56651228,25.4192242 7.23852884,25.4192242 8.61165169,24.9500921 C9.28863318,24.7193298 9.88897526,24.379526 10.3947954,23.9408242 C10.8942289,23.5097298 11.3029725,22.9581826 11.6088915,22.3013977 C11.9135331,21.6490506 12.0674506,20.88576 12.0674506,20.0343487 L12.0674506,13.0189223 C12.0674506,12.1675109 11.9135331,11.4042204 11.6088915,10.7512392 C11.3042498,10.0969902 10.8955062,9.54607698 10.3947954,9.11244679 C9.89152991,8.67564679 9.29182649,8.33647698 8.61101302,8.10317887 C7.92572892,7.86861283 7.18168794,7.75006189 6.40060457,7.75006189 C5.75236286,7.75006189 5.20758435,7.80394868 4.78095828,7.91299019 C4.3511389,8.02456755 3.99284963,8.14882415 3.7175864,8.28385811 C3.42891127,8.4252317 3.18877444,8.55265811 2.99653724,8.6655034 C2.74362718,8.8132166 2.49838105,8.88929208 2.26463083,8.88929208 C1.57104413,8.88929208 1.31047012,8.57548075 1.21403219,8.31238642 C1.11503962,8.03724679 1.06586266,7.68412981 1.06586266,7.23021283 L1.06586266,0.864597736 L0.693522836,0.864597736 Z M6.40060457,25.9897902 C5.54288179,25.9897902 4.71645344,25.85856 3.94495,25.5992694 C3.17025325,25.3406128 2.4792212,24.9570657 1.89101369,24.4613072 C1.30025153,23.9630128 0.83083512,23.3322204 0.499369652,22.5847789 C0.167265522,21.843043 0.000574795609,20.9846581 0.000574795609,20.0343487 L0.000574795609,0.829095849 C0.000574795609,0.433503396 0.25220754,0.177382642 0.643707216,0.177382642 L1.11376229,0.177382642 C1.50462331,0.177382642 1.75689471,0.433503396 1.75689471,0.829095849 L1.75689471,7.23021283 C1.75689471,7.59791094 1.79329843,7.88256 1.86418989,8.07782038 C1.90442559,8.18622792 2.13178918,8.20207698 2.26463083,8.20207698 C2.37256468,8.20207698 2.50029703,8.16023547 2.64335727,8.07591849 C2.84709039,7.95419774 3.10383242,7.81852981 3.41166741,7.66828075 C3.72972098,7.51232604 4.1320779,7.37158642 4.60788094,7.24859774 C5.09070925,7.12560906 5.69424464,7.06284679 6.40060457,7.06284679 C7.25896602,7.06284679 8.07773043,7.19471094 8.83646063,7.45336755 C9.60221612,7.71646189 10.278559,8.10064302 10.8495226,8.59449962 C11.4236795,9.09216 11.8905413,9.7204166 12.236696,10.4621525 C12.5834893,11.2064242 12.7584827,12.0673449 12.7584827,13.0189223 L12.7584827,20.0343487 C12.7584827,20.985926 12.5834893,21.8462128 12.236696,22.5904845 C11.889264,23.3347562 11.4224022,23.9630128 10.8495226,24.4581374 C10.2760043,24.9557977 9.59902281,25.3387109 8.83646063,25.5992694 C8.07773043,25.85856 7.25896602,25.9897902 6.40060457,25.9897902 Z" id="Fill-3"></path>
                    </g>
                    <path d="M18.2975325,25.5780317 C18.2975325,25.7828015 18.1972626,25.8842355 17.9986388,25.8842355 L17.5292224,25.8842355 C17.3299599,25.8842355 17.2309673,25.7828015 17.2309673,25.5780317 L17.2309673,8.43252226 C17.2309673,8.22775245 17.3299599,8.12631849 17.5292224,8.12631849 L17.9986388,8.12631849 C18.1972626,8.12631849 18.2975325,8.22775245 18.2975325,8.43252226 L18.2975325,25.5780317 Z M18.2975325,4.61733736 C18.2975325,4.82210717 18.1972626,4.92354113 17.9986388,4.92354113 L17.5292224,4.92354113 C17.3299599,4.92354113 17.2309673,4.82210717 17.2309673,4.61733736 L17.2309673,3.73993358 C17.2309673,3.53706566 17.3299599,3.43372981 17.5292224,3.43372981 L17.9986388,3.43372981 C18.1972626,3.43372981 18.2975325,3.53706566 18.2975325,3.73993358 L18.2975325,4.61733736 Z" id="Fill-6" fill="#61B9AA"></path>
                    <path d="M17.5765472,4.57891925 L17.9520803,4.58018717 L17.9520803,3.77695698 L17.5784632,3.77695698 L17.5765472,4.57891925 Z M17.9987026,5.26740226 L17.5292862,5.26740226 C17.1377866,5.26740226 16.8855152,5.01254943 16.8855152,4.61759094 L16.8855152,3.74018717 C16.8855152,3.34522868 17.1377866,3.09037585 17.5292862,3.09037585 L17.9987026,3.09037585 C18.3902023,3.09037585 18.6424737,3.34522868 18.6424737,3.74018717 L18.6424737,4.61759094 C18.6424737,5.01254943 18.3902023,5.26740226 17.9987026,5.26740226 Z M17.5765472,25.5396136 L17.9520803,25.5408815 L17.9520803,8.47081358 L17.5791019,8.46954566 L17.5765472,25.5396136 Z M17.9987026,26.2280966 L17.5292862,26.2280966 C17.1377866,26.2280966 16.8855152,25.9732438 16.8855152,25.5782853 L16.8855152,8.43214189 C16.8855152,8.0371834 17.1377866,7.78233057 17.5292862,7.78233057 L17.9987026,7.78233057 C18.3902023,7.78233057 18.6424737,8.0371834 18.6424737,8.43214189 L18.6424737,25.5782853 C18.6424737,25.9732438 18.3902023,26.2280966 17.9987026,26.2280966 Z" id="Fill-8" fill="#61B9AA"></path>
                    <path d="M29.1267456,25.0065781 C29.7245331,25.0065781 30.3210432,24.9127517 30.918192,24.7219291 C31.5147021,24.5330083 32.0479847,24.2553328 32.5167624,23.8889026 C32.9861788,23.5237404 33.3623506,23.0558762 33.6465551,22.4859442 C33.930121,21.916646 34.0731812,21.2509857 34.0731812,20.4908649 L34.0731812,13.4754385 C34.0731812,12.7146838 33.930121,12.0496574 33.6465551,11.4797253 C33.3623506,10.9104272 32.9861788,10.4419291 32.5167624,10.0774008 C32.0479847,9.71223849 31.5147021,9.43456302 30.918192,9.24374038 C30.3210432,9.0535517 29.7245331,8.95909132 29.1267456,8.95909132 C28.5295969,8.95909132 27.9330868,9.0535517 27.335938,9.24374038 C26.7394279,9.43456302 26.2061453,9.71223849 25.7367289,10.0774008 C25.2679511,10.4419291 24.8911407,10.9104272 24.6069362,11.4797253 C24.3227317,12.0496574 24.1809488,12.7146838 24.1809488,13.4754385 L24.1809488,20.4908649 C24.1809488,21.2509857 24.3227317,21.916646 24.6069362,22.4859442 C24.8911407,23.0558762 25.2679511,23.5237404 25.7367289,23.8889026 C26.2061453,24.2553328 26.7394279,24.5330083 27.335938,24.7219291 C27.9330868,24.9127517 28.5295969,25.0065781 29.1267456,25.0065781 Z M35.1391077,20.4908649 C35.1391077,21.396797 34.9826356,22.2012951 34.67033,22.9030913 C34.356747,23.6042536 33.924373,24.1894008 33.3700146,24.655997 C32.8150175,25.1244951 32.1750784,25.4833177 31.4508359,25.731197 C30.7253161,25.9784423 29.951258,26.1033328 29.1267456,26.1033328 C28.3303344,26.1033328 27.5633016,25.9784423 26.8243699,25.731197 C26.0841609,25.4833177 25.4448604,25.1244951 24.9058299,24.655997 C24.365522,24.1894008 23.931232,23.6042536 23.6048758,22.9030913 C23.2772423,22.2012951 23.1143836,21.396797 23.1143836,20.4908649 L23.1143836,13.4754385 C23.1143836,12.5695064 23.2772423,11.7643743 23.6048758,11.0632121 C23.931232,10.3620498 24.365522,9.77817057 24.9058299,9.30967245 C25.4448604,8.8418083 26.0841609,8.48425358 26.8243699,8.23447245 C27.5633016,7.98722717 28.3303344,7.86297057 29.1267456,7.86297057 C29.951258,7.86297057 30.7253161,7.98722717 31.4508359,8.23447245 C32.1750784,8.48425358 32.8150175,8.8418083 33.3700146,9.30967245 C33.924373,9.77817057 34.356747,10.3620498 34.67033,11.0632121 C34.9826356,11.7643743 35.1391077,12.5695064 35.1391077,13.4754385 L35.1391077,20.4908649 Z" id="Fill-10" fill="#61B9AA"></path>
                    <path d="M29.1267456,9.30269887 C28.5672779,9.30269887 28.0001462,9.39272151 27.4419558,9.57023094 C26.8869588,9.74774038 26.3849706,10.0082989 25.9500419,10.3474687 C25.5240545,10.678397 25.1759838,11.1107592 24.9166871,11.6312423 C24.6573905,12.1498234 24.5264648,12.7692045 24.5264648,13.4754385 L24.5264648,20.4908649 C24.5264648,21.1964649 24.6573905,21.81648 24.9160485,22.3325253 C25.1759838,22.8549102 25.5240545,23.2879064 25.9500419,23.6188347 C26.3849706,23.9592725 26.8869588,24.2198309 27.4413172,24.3954385 C28.5589753,24.7510913 29.696432,24.7510913 30.8121741,24.3954385 C31.3678099,24.2198309 31.8691594,23.9592725 32.3028107,23.6194687 C32.7287981,23.2879064 33.0768688,22.8549102 33.3361655,22.3344272 C33.5961008,21.8133102 33.7276652,21.1932951 33.7276652,20.4908649 L33.7276652,13.4754385 C33.7276652,12.7723743 33.5961008,12.1529932 33.3361655,11.6312423 C33.0768688,11.1107592 32.7287981,10.678397 32.3034494,10.3474687 C31.8691594,10.0082989 31.3671712,9.74774038 30.8121741,9.57023094 C30.2539837,9.39272151 29.686852,9.30269887 29.1267456,9.30269887 M29.1267456,25.3501857 C28.4957478,25.3501857 27.8577247,25.2487517 27.2299201,25.0484196 C26.597645,24.8480875 26.023488,24.5488574 25.5234158,24.1577026 C25.0156797,23.7627442 24.6031042,23.2517706 24.2971852,22.6380951 C23.9906275,22.0250536 23.8354327,21.3023366 23.8354327,20.4908649 L23.8354327,13.4754385 C23.8354327,12.6633328 23.9906275,11.9412498 24.2971852,11.3269404 C24.6031042,10.7138989 25.0156797,10.2029253 25.5234158,9.80669887 C26.023488,9.41871396 26.597645,9.11948377 27.2299201,8.91788377 C28.4842519,8.51658566 29.7698781,8.51658566 31.0242098,8.91788377 C31.6571236,9.11948377 32.2306419,9.41871396 32.7300755,9.80669887 C33.2371729,10.2016574 33.6497484,10.7126309 33.9563061,11.3282083 C34.2628637,11.9437857 34.4186972,12.6665026 34.4186972,13.4754385 L34.4186972,20.4908649 C34.4186972,21.2991668 34.2628637,22.0225177 33.9563061,22.6380951 C33.6497484,23.2530385 33.2371729,23.764646 32.7300755,24.1596045 C32.2306419,24.5488574 31.6571236,24.8480875 31.0235712,25.0484196 C30.3964053,25.2487517 29.7583822,25.3501857 29.1267456,25.3501857 M29.1267456,8.20657811 C28.3731247,8.20657811 27.636109,8.32512906 26.9342197,8.55969509 C26.240633,8.79299321 25.634543,9.13216302 25.1331935,9.56706113 C24.6305667,10.0025932 24.2224618,10.5554083 23.9184588,11.2077555 C23.6138171,11.8594687 23.4598996,12.6221253 23.4598996,13.4754385 L23.4598996,20.4908649 C23.4598996,21.3441781 23.6138171,22.1068347 23.9184588,22.757914 C24.2231004,23.4134309 24.631844,23.9643442 25.1325548,24.3973404 C25.6370976,24.8347743 26.242549,25.1745781 26.9342197,25.4066083 C28.3622675,25.8846158 29.9876617,25.8668649 31.3384314,25.4066083 C32.0166902,25.1745781 32.6246963,24.8347743 33.1452056,24.3941706 C33.6567737,23.9643442 34.0629626,23.4166008 34.354831,22.7636196 C34.6460608,22.1100045 34.7935917,21.3441781 34.7935917,20.4908649 L34.7935917,13.4754385 C34.7935917,12.6221253 34.6460608,11.8562989 34.354831,11.2026838 C34.0636013,10.5522385 33.6574124,10.0025932 33.1452056,9.57149887 C32.6272509,9.13343094 32.0186062,8.79299321 31.3377928,8.55842717 C30.6512313,8.32512906 29.9071903,8.20657811 29.1267456,8.20657811 M29.1267456,26.4463064 C28.2984013,26.4463064 27.4860235,26.3150762 26.7138814,26.0557857 C25.9359913,25.7952272 25.2513459,25.412314 24.677189,24.9140196 C24.1036707,24.4182611 23.6368089,23.7900045 23.2906542,23.0470008 C22.9438609,22.303997 22.7688675,21.4443442 22.7688675,20.4908649 L22.7688675,13.4754385 C22.7688675,12.5219592 22.9438609,11.6616725 23.2906542,10.9186687 C23.6355316,10.1788347 24.103032,9.55057811 24.6784663,9.05101585 C25.2481526,8.55715925 25.932798,8.17297811 26.7132427,7.90988377 C28.2856281,7.38179321 30.0681331,7.39891019 31.5632404,7.90988377 C32.3270799,8.17297811 33.0098093,8.55525736 33.5935462,9.04784604 C34.184947,9.5474083 34.6537248,10.1788347 34.9864675,10.9243743 C35.3166557,11.6673781 35.4839851,12.5251291 35.4839851,13.4754385 L35.4839851,20.4908649 C35.4839851,21.4411743 35.3166557,22.2989253 34.9864675,23.0412951 C34.6524474,23.7887366 34.1843083,24.4195291 33.5929075,24.9178234 C33.006616,25.4135819 32.3232479,25.7952272 31.5632404,26.0557857 C30.8032328,26.3150762 29.9844684,26.4463064 29.1267456,26.4463064" id="Fill-12" fill="#61B9AA"></path>
                    <path d="M45.5429721,8.95909132 C44.9458233,8.95909132 44.3493132,9.0535517 43.7521645,9.24374038 C43.1556543,9.43456302 42.6223718,9.71160453 42.1529553,10.0774008 C41.6841776,10.4419291 41.3073671,10.9104272 41.0231626,11.4797253 C40.7383195,12.0496574 40.5971752,12.7146838 40.5971752,13.4754385 L40.5971752,20.4908649 C40.5971752,21.2509857 40.7383195,21.916646 41.0231626,22.4859442 C41.3073671,23.0558762 41.6841776,23.5237404 42.1529553,23.8889026 C42.6223718,24.2553328 43.1556543,24.5330083 43.7521645,24.7219291 C44.3493132,24.9127517 44.9458233,25.0065781 45.5429721,25.0065781 C46.1407595,25.0065781 46.7372697,24.9190913 47.3344184,24.7447517 C47.9309285,24.5691442 48.4642111,24.3060498 48.9329889,23.9548347 C49.4024053,23.6042536 49.786241,23.1516045 50.0838574,22.5962536 C50.3827511,22.0409026 50.532198,21.3822158 50.532198,20.6227291 L50.532198,13.4754385 C50.532198,12.7146838 50.3891378,12.0496574 50.1062106,11.4797253 C49.8207288,10.9104272 49.444557,10.4419291 48.9751406,10.0774008 C48.5070015,9.71160453 47.9737189,9.43456302 47.3765701,9.24374038 C46.78006,9.0535517 46.168222,8.95909132 45.5429721,8.95909132 M45.5857625,33.2506234 C46.2110123,33.2506234 46.8151864,33.1631366 47.3976459,32.988797 C47.9801055,32.8119215 48.5070015,32.53488 48.9751406,32.1551366 C49.444557,31.7747592 49.8207288,31.2992875 50.1062106,30.7293555 C50.3891378,30.1600574 50.532198,29.494397 50.532198,28.7342762 L50.532198,26.2795743 C50.532198,25.8700347 50.4894077,25.5479819 50.403827,25.3146838 C50.318885,25.0813857 50.0774708,24.9641026 49.6789459,24.9641026 C49.5090618,24.9641026 49.3238499,25.0224272 49.1239488,25.1384423 C48.9253249,25.2563592 48.6768855,25.3875894 48.3779918,25.5334008 C48.0810141,25.679846 47.7029263,25.8117102 47.2481991,25.9283592 C46.7934719,26.0450083 46.2250629,26.1033328 45.5429721,26.1033328 C44.7465609,26.1033328 43.9795281,25.9784423 43.2405964,25.731197 C42.5003874,25.4833177 41.8604482,25.1244951 41.3220564,24.655997 C40.7817485,24.1894008 40.3474585,23.6042536 40.0211023,22.9030913 C39.6934688,22.2012951 39.53061,21.396797 39.53061,20.4908649 L39.53061,13.4754385 C39.53061,12.5695064 39.6934688,11.7643743 40.0211023,11.0632121 C40.3474585,10.3620498 40.7817485,9.77817057 41.3220564,9.30967245 C41.8604482,8.8418083 42.5003874,8.48361962 43.2405964,8.23447245 C43.9795281,7.98722717 44.7465609,7.86297057 45.5429721,7.86297057 C46.3674845,7.86297057 47.1492065,7.98722717 47.8881382,8.23447245 C48.6270699,8.48361962 49.2740343,8.8418083 49.8283927,9.30967245 C50.3827511,9.77817057 50.8164025,10.3620498 51.1287081,11.0632121 C51.4410137,11.7643743 51.5974859,12.5695064 51.5974859,13.4754385 L51.5974859,28.7342762 C51.5974859,29.6408423 51.4410137,30.4447064 51.1287081,31.1465026 C50.8164025,31.8476649 50.3891378,32.4315442 49.8494685,32.8994083 C49.308522,33.3672725 48.6698602,33.7254611 47.9309285,33.9746083 C47.1913582,34.2224875 46.4096362,34.3467442 45.5857625,34.3467442 C44.1360002,34.3467442 42.8848617,33.9746083 41.8336244,33.2290687 C40.7817485,32.4835291 40.0709179,31.409597 39.7017714,30.0072725 C39.7017714,29.7720725 39.8001253,29.6547894 40.0000265,29.6547894 L40.4688042,29.6547894 C40.6393269,29.6547894 40.7383195,29.7435442 40.7670593,29.9178838 C41.2211478,31.2333555 41.8898267,32.1183668 42.7718186,32.5722838 C43.6518946,33.0242989 44.5900887,33.2506234 45.5857625,33.2506234" id="Fill-14" fill="#61B9AA"></path>
                    <path d="M45.5429721,9.30269887 C44.9835044,9.30269887 44.4157341,9.39272151 43.8581823,9.57023094 C43.3031852,9.74774038 42.8011971,10.0082989 42.3662684,10.3474687 C41.940281,10.678397 41.5922103,11.1107592 41.3329136,11.6312423 C41.0736169,12.1498234 40.9426913,12.7692045 40.9426913,13.4754385 L40.9426913,20.4908649 C40.9426913,21.1964649 41.0736169,21.81648 41.3322749,22.3325253 C41.5922103,22.8549102 41.940281,23.2879064 42.3662684,23.6188347 C42.8011971,23.9592725 43.3031852,24.2198309 43.8575437,24.3954385 C44.9764791,24.7523592 46.1126584,24.7434838 47.2367032,24.4157253 C47.7910616,24.252797 48.2911338,24.0049177 48.7241465,23.680963 C49.1514112,23.36208 49.5065072,22.942397 49.7792158,22.4345932 C50.0500084,21.9318611 50.186682,21.3219894 50.186682,20.6227291 L50.186682,13.4754385 C50.186682,12.7723743 50.054479,12.1529932 49.795821,11.6312423 C49.5352469,11.1107592 49.1871763,10.678397 48.7618275,10.3474687 C48.3275375,10.0082989 47.8255493,9.74774038 47.2705522,9.57023094 C46.7123618,9.39272151 46.1318183,9.30269887 45.5429721,9.30269887 Z M45.5429721,25.3501857 C44.9119743,25.3501857 44.2739511,25.2487517 43.6461466,25.0484196 C43.0138714,24.8480875 42.4397145,24.5488574 41.9390036,24.1577026 C41.4319062,23.7627442 41.0193307,23.2517706 40.7134117,22.6380951 C40.406854,22.0250536 40.2516592,21.3023366 40.2516592,20.4908649 L40.2516592,13.4754385 C40.2516592,12.6633328 40.406854,11.9412498 40.7134117,11.3269404 C41.0193307,10.7138989 41.4319062,10.2029253 41.9390036,9.80669887 C42.4397145,9.41871396 43.0138714,9.11948377 43.6461466,8.91788377 C44.9279408,8.50707623 46.2538027,8.52355925 47.482588,8.91788377 C48.1155018,9.11948377 48.6896587,9.41871396 49.1884536,9.80669887 C49.6955511,10.2016574 50.1074879,10.7126309 50.4153229,11.3269404 C50.7218806,11.9437857 50.877714,12.6665026 50.877714,13.4754385 L50.877714,20.6227291 C50.877714,21.4367366 50.7129393,22.1556498 50.3891378,22.757914 C50.0685295,23.3551064 49.6482901,23.848963 49.140554,24.2280725 C48.6417591,24.6027442 48.0669635,24.8867592 47.4327723,25.0737781 C46.8062451,25.2576272 46.170138,25.3501857 45.5429721,25.3501857 Z M40.0000265,29.998397 C40.3819462,31.2365253 41.0550957,32.2559366 42.0348029,32.9494913 C43.020258,33.6500196 44.2151943,34.0031366 45.5857625,34.0031366 C46.3668458,34.0031366 47.1185507,33.8845857 47.82044,33.6500196 C48.5127494,33.4167215 49.1194781,33.0769177 49.6227436,32.6407517 C50.1221771,32.2083894 50.5226181,31.6568423 50.8132092,31.0076649 C51.104439,30.3534158 51.2519698,29.5875894 51.2519698,28.7342762 L51.2519698,13.4754385 C51.2519698,12.6221253 51.104439,11.8562989 50.8132092,11.2026838 C50.5226181,10.5522385 50.1157905,10.0025932 49.6035838,9.57149887 C49.0869064,9.13343094 48.4718751,8.79426113 47.777011,8.55969509 C46.3994176,8.0975366 44.7791326,8.08041962 43.3504462,8.55969509 C42.6568595,8.79299321 42.0501308,9.13216302 41.54942,9.56706113 C41.0467931,10.0025932 40.6386882,10.5554083 40.3346852,11.2077555 C40.0300436,11.8594687 39.8761261,12.6221253 39.8761261,13.4754385 L39.8761261,20.4908649 C39.8761261,21.3441781 40.0300436,22.1068347 40.3346852,22.757914 C40.6393269,23.4134309 41.0474318,23.9643442 41.5487813,24.3973404 C42.0533241,24.8347743 42.6587755,25.1745781 43.3504462,25.4066083 C44.0523355,25.6411743 44.7893512,25.7597253 45.5429721,25.7597253 C46.1912138,25.7597253 46.7353537,25.7058385 47.1626184,25.596797 C47.5930765,25.4852196 47.9513657,25.360963 48.2253516,25.2259291 C48.5140268,25.0839215 48.7554409,24.9571291 48.9476781,24.8436498 C49.2018655,24.6946687 49.4471116,24.6204951 49.6789459,24.6204951 C50.3718939,24.6204951 50.6324679,24.9343064 50.7289058,25.1974008 C50.8285371,25.4719064 50.877714,25.8256574 50.877714,26.2795743 L50.877714,28.7342762 C50.877714,29.5425781 50.7218806,30.2659291 50.4159616,30.8815064 C50.1094039,31.493914 49.6987444,32.0124951 49.1935629,32.4214008 C48.6928521,32.8265026 48.1225271,33.1289026 47.4991932,33.3159215 C45.905732,33.7958309 44.119395,33.6500196 42.6127918,32.8765857 C41.6528832,32.383363 40.9222541,31.425446 40.4407031,30.0300951 L40.0000265,29.998397 Z M45.5857625,34.6903517 C44.0676634,34.6903517 42.7379695,34.2922234 41.632446,33.5080121 C40.5179812,32.7180951 39.755419,31.5687215 39.3671126,30.0941253 C39.3594487,30.064963 39.3556167,30.0358008 39.3556167,30.0072725 C39.3556167,29.5850536 39.6085268,29.3111819 40.0000265,29.3111819 L40.4688042,29.3111819 C40.8066563,29.3111819 41.0519024,29.5229253 41.1087433,29.8620951 C41.5162095,31.0304875 42.1344341,31.8578083 42.9308454,32.266714 C44.2771444,32.9583668 45.8795469,33.0826234 47.297376,32.6604045 C47.8344906,32.4974762 48.3256215,32.2381857 48.7567182,31.8888725 C49.183983,31.5427291 49.5346083,31.1002234 49.7964596,30.5765706 C50.054479,30.0573555 50.186682,29.4367064 50.186682,28.7342762 L50.186682,26.2795743 C50.186682,25.9118762 50.1509169,25.6272272 50.0793868,25.4319668 C50.0391511,25.3229253 49.8117875,25.3077102 49.6789459,25.3077102 C49.5722893,25.3077102 49.444557,25.3501857 49.2995807,25.4351366 C49.095209,25.5549555 48.8391056,25.6912574 48.5312706,25.8408725 C48.2157717,25.9961932 47.8134148,26.1375668 47.3356958,26.2611894 C46.8522288,26.3841781 46.2486934,26.4463064 45.5429721,26.4463064 C44.7146278,26.4463064 43.90225,26.3150762 43.1301079,26.0557857 C42.3522178,25.7952272 41.6669337,25.412314 41.0934154,24.9140196 C40.5198971,24.4182611 40.0530354,23.7900045 39.7068807,23.0470008 C39.3600873,22.303997 39.185094,21.4443442 39.185094,20.4908649 L39.185094,13.4754385 C39.185094,12.5219592 39.3600873,11.6616725 39.7068807,10.9186687 C40.0517581,10.1788347 40.5192585,9.55057811 41.0946928,9.05101585 C41.6643791,8.55715925 42.3490245,8.17297811 43.1294692,7.90988377 C44.7005772,7.38306113 46.4792503,7.40017811 47.9986267,7.90988377 C48.7765167,8.17171019 49.4681875,8.55525736 50.052563,9.04784604 C50.6433252,9.5474083 51.1127416,10.1788347 51.4448457,10.9243743 C51.7756725,11.6673781 51.9430019,12.5251291 51.9430019,13.4754385 L51.9430019,28.7342762 C51.9430019,29.6845857 51.7756725,30.5417026 51.4448457,31.2847064 C51.1140189,32.0277102 50.6535437,32.6578687 50.0781095,33.1574309 C49.5058685,33.6531894 48.8212231,34.0361026 48.0420557,34.2998309 C47.2686363,34.5584875 46.4422079,34.6903517 45.5857625,34.6903517 Z" id="Fill-16" fill="#61B9AA"></path>
                    <path d="M66.3094434,15.0099442 C66.7354308,14.9224574 66.9487438,14.6302008 66.9487438,14.1319064 L66.9487438,13.4751215 C66.9487438,12.7150008 66.8056836,12.0493404 66.5221177,11.4800423 C66.2379132,10.9101102 65.8617414,10.442246 65.3916864,10.0770838 C64.9235473,9.71192151 64.39729,9.43424604 63.8148304,9.24405736 C63.2323709,9.05323472 62.6269195,8.9594083 62.0029469,8.9594083 C61.4051595,8.9594083 60.8086494,9.05323472 60.2115006,9.24405736 C59.6149905,9.43424604 59.0823466,9.71192151 58.6122915,10.0770838 C58.1435137,10.442246 57.7667033,10.9101102 57.4824988,11.4800423 C57.1976556,12.0493404 57.0565114,12.7150008 57.0565114,13.4751215 L57.0565114,16.5003894 C57.0565114,16.7349555 57.1127136,16.9390913 57.2263954,17.1140649 C57.3394385,17.2903064 57.4959107,17.3771592 57.6964505,17.3771592 C57.808855,17.3486309 58.1926907,17.2313479 58.8466804,17.0272121 C59.415728,16.8807668 60.2760054,16.6544423 61.4262353,16.3463366 C62.5777425,16.0401328 64.2050528,15.5950913 66.3094434,15.0099442 Z M57.0565114,20.4911819 C57.0565114,21.2513026 57.1976556,21.916963 57.4824988,22.4862611 C57.7667033,23.0555592 58.1435137,23.5240574 58.6122915,23.8892196 C59.0823466,24.2556498 59.6149905,24.5326913 60.2115006,24.7216121 C60.8086494,24.9124347 61.4051595,25.0068951 62.0029469,25.0068951 C62.9967047,25.0068951 63.9348988,24.7805706 64.8168908,24.3285555 C65.6976054,23.8746385 66.3656456,22.9902611 66.8203728,21.6747894 C66.8778523,21.4998158 66.9768449,21.4110611 67.1192665,21.4110611 L67.5886829,21.4110611 C67.7866681,21.4110611 67.886938,21.5283442 67.886938,21.7616423 C67.5171528,23.1658687 66.8056836,24.2398008 65.7550849,24.9853404 C64.7025703,25.73088 63.4514318,26.1036498 62.0029469,26.1036498 C61.1777959,26.1036498 60.3960739,25.9787592 59.6571422,25.73088 C58.9175718,25.4836347 58.2782714,25.1241781 57.7386022,24.656314 C57.1976556,24.1890838 56.7716682,23.6045706 56.4593626,22.9027743 C56.1457797,22.2016121 55.9899462,21.39648 55.9899462,20.4911819 L55.9899462,13.4751215 C55.9899462,12.5691894 56.1457797,11.7646913 56.4593626,11.0628951 C56.7716682,10.3617328 57.1976556,9.77785358 57.7386022,9.30998943 C58.2782714,8.84212528 58.9175718,8.4839366 59.6571422,8.23478943 C60.3960739,7.98691019 61.1777959,7.86265358 62.0029469,7.86265358 C62.8268206,7.86265358 63.6085426,7.98691019 64.3474743,8.23478943 C65.086406,8.4839366 65.7257065,8.84212528 66.2672917,9.30998943 C66.8056836,9.77785358 67.2329483,10.3617328 67.5458926,11.0628951 C67.8581982,11.7646913 68.0146703,12.5691894 68.0146703,13.4751215 L68.0146703,15.3161479 C68.0146703,15.5792423 67.7438777,15.7694309 67.2048472,15.8873479 L57.8656958,18.473914 C57.6383323,18.5328725 57.4467337,18.6266989 57.2909002,18.758563 C57.1344281,18.8904272 57.0565114,19.1021706 57.0565114,19.3944272 L57.0565114,20.4911819 Z" id="Fill-18" fill="#61B9AA"></path>
                    <path d="M62.0028192,9.30269887 C61.4433515,9.30269887 60.8755811,9.39272151 60.3173907,9.57023094 C59.7623936,9.74774038 59.2604055,10.0082989 58.8254768,10.3474687 C58.3994894,10.678397 58.0520574,11.1107592 57.792122,11.6312423 C57.5328253,12.1498234 57.4018997,12.7692045 57.4018997,13.4754385 L57.4018997,16.5000725 C57.4018997,16.6687064 57.438942,16.8088121 57.5168588,16.927997 C57.5736997,17.0161177 57.6254313,17.0338687 57.6963227,17.0338687 C57.7218692,17.0161177 58.0993183,16.9007366 58.7430894,16.6991366 C59.3287423,16.5482536 60.1871037,16.322563 61.3360563,16.0157253 C62.4882021,15.7095215 64.1142351,15.26448 66.2167097,14.6793328 C66.2230963,14.6774309 66.2313989,14.6748951 66.2397015,14.6729932 C66.4153335,14.6381253 66.6031,14.5626838 66.6031,14.1322234 L66.6031,13.4754385 C66.6031,12.7723743 66.4715357,12.1529932 66.212239,11.6312423 C65.9523037,11.1107592 65.604233,10.678397 65.1788843,10.3474687 C64.7445942,10.0082989 64.2489927,9.74647245 63.7061302,9.57023094 C63.162629,9.39272151 62.5897494,9.30269887 62.0028192,9.30269887 M57.7403904,17.7109404 C57.357832,17.7109404 57.1068379,17.5651291 56.9350379,17.2988649 C56.7868684,17.0706385 56.7108676,16.8024725 56.7108676,16.5000725 L56.7108676,13.4754385 C56.7108676,12.6633328 56.8660624,11.9412498 57.1732587,11.3269404 C57.4791777,10.7138989 57.8917533,10.2029253 58.3988507,9.80669887 C58.8989229,9.41871396 59.4730798,9.11948377 60.105355,8.91788377 C61.3890652,8.50707623 62.7232297,8.52672906 63.9226365,8.91788377 C64.5414998,9.1207517 65.1079928,9.41998189 65.6055103,9.80669887 C66.1126078,10.2016574 66.525822,10.7126309 66.8323796,11.3282083 C67.1382986,11.9437857 67.2941321,12.6665026 67.2941321,13.4754385 L67.2941321,14.1322234 C67.2941321,15.0140649 66.7346644,15.2689177 66.391703,15.3430913 C64.2911444,15.9276045 62.6663888,16.372646 61.5155202,16.6769479 C60.3646517,16.9869555 59.5030969,17.212646 58.932772,17.3590913 C58.2864462,17.5619592 57.8962239,17.6805102 57.7812648,17.7090385 C57.7672142,17.7109404 57.7538023,17.7109404 57.7403904,17.7109404 M62.0028192,8.20657811 C61.2204585,8.20657811 60.4693922,8.32512906 59.7675029,8.55969509 C59.0739162,8.79299321 58.4678262,9.13216302 57.9664767,9.56706113 C57.4657658,10.0013253 57.0659636,10.5509706 56.7747338,11.2026838 C56.483504,11.8550309 56.3353345,12.6195894 56.3353345,13.4754385 L56.3353345,20.4908649 C56.3353345,21.346714 56.483504,22.1112725 56.7747338,22.7636196 C57.0666022,23.4178687 57.4664045,23.967514 57.9651994,24.3973404 C58.4703808,24.8347743 59.0758322,25.1745781 59.7675029,25.4066083 C60.4693922,25.6411743 61.2204585,25.7597253 62.0028192,25.7597253 C63.3727487,25.7597253 64.5676849,25.4066083 65.5537787,24.70608 C66.5124101,24.0264725 67.1759797,23.0362234 67.5291596,21.7619592 L67.1191388,21.7543517 C66.6650502,23.1820347 65.9344211,24.1393177 64.9757898,24.6331743 C63.4870692,25.394563 61.7697076,25.579046 60.105355,25.0484196 C59.4730798,24.8480875 58.8989229,24.5488574 58.3988507,24.1577026 C57.8917533,23.7627442 57.4791777,23.2517706 57.1726201,22.6380951 C56.8660624,22.0250536 56.7108676,21.3023366 56.7108676,20.4908649 L56.7108676,19.3941102 C56.7108676,18.9972498 56.8302974,18.6954838 57.0672409,18.4964196 C57.2607554,18.3334913 57.5002536,18.2130385 57.7799874,18.1420347 L67.1114748,15.5567366 C67.5757819,15.4553026 67.6690266,15.3361177 67.6690266,15.3164649 L67.6690266,13.4754385 C67.6690266,12.6221253 67.5214957,11.8562989 67.2302659,11.2026838 C66.9390361,10.5522385 66.5398725,10.0013253 66.038523,9.56706113 C65.5358962,9.13216302 64.9291675,8.79299321 64.2362195,8.55969509 C63.5349688,8.32512906 62.7839025,8.20657811 62.0028192,8.20657811 M62.0028192,26.4463064 C61.1450964,26.4463064 60.318668,26.3150762 59.5465259,26.0557857 C58.7692745,25.7952272 58.0839904,25.412314 57.5104722,24.9140196 C56.9356766,24.4182611 56.4752014,23.7874687 56.1437359,23.0412951 C55.8129091,22.3014611 55.6449411,21.4424423 55.6449411,20.4908649 L55.6449411,13.4754385 C55.6449411,12.5238611 55.8129091,11.6642083 56.1437359,10.9243743 C56.4745627,10.1801026 56.9343992,9.55057811 57.5117495,9.05101585 C58.0807971,8.55715925 58.7660812,8.17297811 59.5458873,7.90988377 C61.0920875,7.3919366 62.9135509,7.3919366 64.4578351,7.90988377 C65.2370025,8.17171019 65.9222866,8.55715925 66.4938889,9.05101585 C67.0712391,9.55184604 67.530437,10.1813706 67.8619024,10.9243743 C68.1920906,11.6673781 68.3600586,12.5251291 68.3600586,13.4754385 L68.3600586,15.3164649 C68.3600586,15.7615064 67.9966601,16.0658083 67.2794429,16.222397 L57.9594514,18.8045253 C57.7736008,18.8514385 57.6299019,18.9218083 57.5149428,19.0194385 C57.4395807,19.0834687 57.4018997,19.2083592 57.4018997,19.3941102 L57.4018997,20.4908649 C57.4018997,21.1964649 57.5328253,21.81648 57.7914833,22.3325253 C58.0520574,22.8549102 58.3994894,23.2879064 58.8254768,23.6188347 C59.2604055,23.9592725 59.7623936,24.2198309 60.3167521,24.3954385 C61.8080273,24.8709102 63.3337903,24.7048121 64.6577362,24.0233026 C65.4522315,23.614397 66.0704561,22.7864423 66.4938889,21.5628951 C66.6388651,21.1159517 66.9799105,21.0677706 67.1191388,21.0677706 L67.5885552,21.0677706 C67.9794162,21.0677706 68.2323263,21.3410083 68.2323263,21.7619592 C68.2323263,21.7904875 68.2284943,21.8209177 68.221469,21.849446 C67.832524,23.3253102 67.0699618,24.4740498 65.955497,25.2646008 C64.8493348,26.049446 63.5196409,26.4463064 62.0028192,26.4463064" id="Fill-20" fill="#61B9AA"></path>
                    <path d="M84.2181586,25.5780317 C84.2181586,25.7828015 84.1178887,25.8842355 83.9192648,25.8842355 L83.4511257,25.8842355 C83.2505859,25.8842355 83.152232,25.7828015 83.152232,25.5780317 L83.152232,13.4750581 C83.152232,12.7149374 83.0091718,12.049277 82.725606,11.4799789 C82.4414015,10.9100468 82.0652297,10.4421826 81.5958132,10.0770204 C81.1263968,9.71185811 80.5931142,9.43418264 79.9966041,9.24399396 C79.3994554,9.05380528 78.8029452,8.95934491 78.2051578,8.95934491 C77.608009,8.95934491 77.0121376,9.05380528 76.4149888,9.24399396 C75.8184787,9.43418264 75.2845575,9.71185811 74.8157797,10.0770204 C74.3463633,10.4421826 73.9695528,10.9100468 73.685987,11.4799789 C73.4011438,12.049277 73.2593609,12.7149374 73.2593609,13.4750581 L73.2593609,25.5780317 C73.2593609,25.7828015 73.1597297,25.8842355 72.9604672,25.8842355 L72.4923281,25.8842355 C72.292427,25.8842355 72.1934344,25.7828015 72.1934344,25.5780317 L72.1934344,13.4750581 C72.1934344,12.569126 72.3492679,11.7646279 72.6622122,11.0628317 C72.9751564,10.3623034 73.4081691,9.77779019 73.9625276,9.30992604 C74.5175247,8.84206189 75.1568251,8.48387321 75.8810676,8.23472604 C76.6065874,7.98684679 77.3806454,7.86259019 78.2051578,7.86259019 C79.0296702,7.86259019 79.8043669,7.98684679 80.5298867,8.23472604 C81.2541292,8.48387321 81.887043,8.84206189 82.4267122,9.30992604 C82.9670201,9.77779019 83.4006715,10.3623034 83.7276663,11.0628317 C84.0540225,11.7646279 84.2181586,12.569126 84.2181586,13.4750581 L84.2181586,25.5780317 Z" id="Fill-22" fill="#61B9AA"></path>
                    <path d="M83.4978119,25.5396136 L83.8727064,25.5408815 L83.8727064,13.4753117 C83.8727064,12.6239004 83.7187889,11.8606098 83.4141472,11.2082626 C83.1095056,10.5533796 82.7001233,10.0024664 82.2000512,9.56883623 C81.6967857,9.13267019 81.0964436,8.79286642 80.4169075,8.55830038 C79.0437846,8.09170415 77.3679361,8.09043623 75.9941746,8.5595683 C75.3133611,8.79286642 74.7047164,9.13393811 74.1874004,9.57200604 C73.6751936,10.0024664 73.2683661,10.5521117 72.9777749,11.202557 C72.6865452,11.8549042 72.5390143,12.6207306 72.5390143,13.4753117 L72.5390143,25.5396136 L72.9119928,25.5408815 L72.9139088,13.4753117 C72.9139088,12.6651079 73.0697422,11.9423909 73.3762999,11.3268136 C73.6815802,10.7137721 74.0941558,10.2034325 74.6025305,9.80657208 C75.1006867,9.41858717 75.6754823,9.11935698 76.3090348,8.91775698 C77.5646439,8.51645887 78.8489928,8.51645887 80.1026859,8.91775698 C80.734961,9.11935698 81.309118,9.41858717 81.8085515,9.80657208 C82.315649,10.2015306 82.7288631,10.7125042 83.0354208,11.3280815 C83.3419784,11.9436589 83.4978119,12.6663758 83.4978119,13.4753117 L83.4978119,25.5396136 Z M83.9193287,26.2280966 L83.4511896,26.2280966 C83.0590513,26.2280966 82.8067799,25.9732438 82.8067799,25.5782853 L82.8067799,13.4753117 C82.8067799,12.7722475 82.6752155,12.1528664 82.4159189,11.6317494 C82.1553448,11.1106325 81.8079128,10.6782702 81.3819254,10.3479758 C80.9476354,10.0081721 80.4456472,9.74761358 79.8906501,9.57073811 C78.7742693,9.21508528 77.6368127,9.21508528 76.5210705,9.57073811 C75.9654348,9.74761358 75.4634466,10.00944 75.0291566,10.3479758 C74.6025305,10.6782702 74.2544599,11.1106325 73.9958018,11.6317494 C73.7365052,12.1515985 73.6049408,12.7709796 73.6049408,13.4753117 L73.6049408,25.5782853 C73.6049408,25.9732438 73.3520308,26.2280966 72.9605311,26.2280966 L72.492392,26.2280966 C72.1002536,26.2280966 71.8479822,25.9732438 71.8479822,25.5782853 L71.8479822,13.4753117 C71.8479822,12.5237343 72.0153116,11.6659834 72.3461384,10.9242475 C72.6788812,10.1787079 73.147659,9.54728151 73.7390598,9.04771925 C74.3227967,8.55513057 75.0055261,8.17285132 75.7680883,7.91102491 C77.2893807,7.39054189 79.12234,7.39180981 80.6423551,7.90975698 C81.4074719,8.17285132 82.0838147,8.55703245 82.6541397,9.05088906 C83.2289353,9.54854943 83.6957971,10.17744 84.0413131,10.9191758 C84.3881065,11.6628136 84.5630998,12.5237343 84.5630998,13.4753117 L84.5630998,25.5782853 C84.5630998,25.9732438 84.3108284,26.2280966 83.9193287,26.2280966 Z" id="Fill-24" fill="#61B9AA"></path>
                    <path d="M99.1418963,15.0099442 C99.5678837,14.9224574 99.7811967,14.6302008 99.7811967,14.1319064 L99.7811967,13.4751215 C99.7811967,12.7150008 99.6381365,12.0493404 99.3545707,11.4800423 C99.0703662,10.9101102 98.6941944,10.442246 98.2241393,10.0770838 C97.7560002,9.71192151 97.2297429,9.43424604 96.6472833,9.24405736 C96.0648238,9.05323472 95.4593724,8.9594083 94.8347612,8.9594083 C94.2376124,8.9594083 93.6411023,9.05323472 93.0439535,9.24405736 C92.4474434,9.43424604 91.9141608,9.71192151 91.4447444,10.0770838 C90.9759667,10.442246 90.5991562,10.9101102 90.3149517,11.4800423 C90.0301086,12.0493404 89.8889643,12.7150008 89.8889643,13.4751215 L89.8889643,16.5003894 C89.8889643,16.7349555 89.9451665,16.9390913 90.0588483,17.1140649 C90.1718915,17.2903064 90.3283636,17.3771592 90.5282648,17.3771592 C90.6413079,17.3486309 91.0251436,17.2313479 91.6784946,17.0272121 C92.2481809,16.8807668 93.1084584,16.6544423 94.2586883,16.3463366 C95.4101955,16.0401328 97.0375057,15.5950913 99.1418963,15.0099442 Z M89.8889643,20.4911819 C89.8889643,21.2513026 90.0301086,21.916963 90.3149517,22.4862611 C90.5991562,23.0555592 90.9759667,23.5240574 91.4447444,23.8892196 C91.9141608,24.2556498 92.4474434,24.5326913 93.0439535,24.7216121 C93.6411023,24.9124347 94.2376124,25.0068951 94.8347612,25.0068951 C95.8291576,25.0068951 96.7673518,24.7805706 97.6493437,24.3285555 C98.5300583,23.8746385 99.1980985,22.9902611 99.6528257,21.6747894 C99.7103053,21.4998158 99.8092979,21.4110611 99.9517194,21.4110611 L100.420497,21.4110611 C100.619121,21.4110611 100.719391,21.5283442 100.719391,21.7616423 C100.349606,23.1658687 99.6381365,24.2398008 98.5875379,24.9853404 C97.5350232,25.73088 96.2838848,26.1036498 94.8347612,26.1036498 C94.0102488,26.1036498 93.2285268,25.9787592 92.4895951,25.73088 C91.7500248,25.4836347 91.1100856,25.1241781 90.5710551,24.656314 C90.0301086,24.1890838 89.6034825,23.6045706 89.2918155,22.9027743 C88.9782326,22.2016121 88.8223991,21.39648 88.8223991,20.4911819 L88.8223991,13.4751215 C88.8223991,12.5691894 88.9782326,11.7646913 89.2918155,11.0628951 C89.6034825,10.3617328 90.0301086,9.77785358 90.5710551,9.30998943 C91.1100856,8.84212528 91.7500248,8.4839366 92.4895951,8.23478943 C93.2285268,7.98691019 94.0102488,7.86265358 94.8347612,7.86265358 C95.6592736,7.86265358 96.4409956,7.98691019 97.1799273,8.23478943 C97.918859,8.4839366 98.5581594,8.84212528 99.0991059,9.30998943 C99.6381365,9.77785358 100.064763,10.3617328 100.378346,11.0628951 C100.690651,11.7646913 100.847123,12.5691894 100.847123,13.4751215 L100.847123,15.3161479 C100.847123,15.5792423 100.576331,15.7694309 100.036661,15.8873479 L90.6981488,18.473914 C90.4707852,18.5328725 90.278548,18.6266989 90.1233532,18.758563 C89.966881,18.8904272 89.8889643,19.1021706 89.8889643,19.3944272 L89.8889643,20.4911819 Z" id="Fill-26" fill="#61B9AA"></path>
                    <path d="M94.8346973,9.30269887 C94.2752296,9.30269887 93.7080979,9.39272151 93.1499075,9.57023094 C92.5949104,9.74774038 92.0929223,10.0082989 91.6579936,10.3474687 C91.2320062,10.678397 90.8839355,11.1107592 90.6246388,11.6312423 C90.3653421,12.1498234 90.2344165,12.7692045 90.2344165,13.4754385 L90.2344165,16.5000725 C90.2344165,16.6687064 90.2714588,16.8088121 90.3493756,16.927997 C90.4062165,17.0161177 90.4579481,17.0338687 90.5282009,17.0338687 C90.554386,17.0161177 90.9318351,16.9007366 91.5749676,16.6991366 C92.1606204,16.5482536 93.0196205,16.322563 94.1685731,16.0157253 C95.3207189,15.7095215 96.9461132,15.26448 99.0485878,14.6793328 C99.0556131,14.6774309 99.0639157,14.6748951 99.0715796,14.6729932 C99.2472116,14.6381253 99.4356168,14.5626838 99.4356168,14.1322234 L99.4356168,13.4754385 C99.4356168,12.7723743 99.3040525,12.1529932 99.0441172,11.6312423 C98.7848205,11.1107592 98.4367498,10.678397 98.0114011,10.3474687 C97.577111,10.0082989 97.0815095,9.74647245 96.538647,9.57023094 C95.9951458,9.39272151 95.4222662,9.30269887 94.8346973,9.30269887 M90.5729072,17.7109404 C90.1903488,17.7109404 89.9393547,17.5651291 89.7675547,17.2988649 C89.6193852,17.0706385 89.5433844,16.8024725 89.5433844,16.5000725 L89.5433844,13.4754385 C89.5433844,12.6633328 89.6985792,11.9412498 90.0051369,11.3269404 C90.3110559,10.7138989 90.7236314,10.2029253 91.2313675,9.80669887 C91.7314397,9.41871396 92.3055966,9.11948377 92.9378718,8.91788377 C94.221582,8.50707623 95.5544692,8.52672906 96.7551533,8.91788377 C97.3740166,9.1207517 97.9405096,9.41998189 98.4380271,9.80669887 C98.9451246,10.2016574 99.3577001,10.7126309 99.6642578,11.3282083 C99.9708154,11.9437857 100.126649,12.6665026 100.126649,13.4754385 L100.126649,14.1322234 C100.126649,15.0140649 99.5671812,15.2689177 99.2235811,15.3430913 C97.1236612,15.9276045 95.4989056,16.372646 94.348037,16.6769479 C93.1971685,16.9869555 92.3349751,17.212646 91.7652888,17.3590913 C91.118963,17.5619592 90.7287407,17.6805102 90.6137816,17.7090385 C90.599731,17.7109404 90.5863191,17.7109404 90.5729072,17.7109404 M94.8346973,8.20657811 C94.0529753,8.20657811 93.301909,8.32512906 92.6000197,8.55969509 C91.906433,8.79299321 91.2997043,9.13216302 90.7989935,9.56706113 C90.2982826,10.0013253 89.8984804,10.5509706 89.6072506,11.2026838 C89.3160208,11.8550309 89.1678513,12.6195894 89.1678513,13.4754385 L89.1678513,20.4908649 C89.1678513,21.346714 89.3160208,22.1112725 89.6072506,22.7636196 C89.8984804,23.4178687 90.2989213,23.967514 90.7977162,24.3973404 C91.3028976,24.8347743 91.908349,25.1745781 92.6000197,25.4066083 C93.301909,25.6411743 94.0529753,25.7597253 94.8346973,25.7597253 C96.2052655,25.7597253 97.4002017,25.4066083 98.3862955,24.70608 C99.3442882,24.0264725 100.008496,23.0362234 100.361676,21.7619592 L99.9516556,21.7543517 C99.4969284,23.1820347 98.7662993,24.1393177 97.8083066,24.6331743 C96.319586,25.394563 94.6028631,25.579046 92.9378718,25.0484196 C92.3055966,24.8480875 91.7314397,24.5488574 91.2313675,24.1577026 C90.7236314,23.7627442 90.3110559,23.2517706 90.0051369,22.6380951 C89.6985792,22.0250536 89.5433844,21.3023366 89.5433844,20.4908649 L89.5433844,19.3941102 C89.5433844,18.9972498 89.6628142,18.6954838 89.899119,18.4964196 C90.0932722,18.3334913 90.3327704,18.2130385 90.6125042,18.1420347 L99.9439916,15.5567366 C100.408299,15.4553026 100.501543,15.3361177 100.501543,15.3164649 L100.501543,13.4754385 C100.501543,12.6221253 100.354012,11.8562989 100.062783,11.2026838 C99.7715529,10.5522385 99.3717507,10.0013253 98.8710398,9.56706113 C98.368413,9.13216302 97.7616843,8.79299321 97.0687363,8.55969509 C96.3674856,8.32512906 95.6157807,8.20657811 94.8346973,8.20657811 M94.8346973,26.4463064 C93.9776132,26.4463064 93.1511848,26.3150762 92.3790427,26.0557857 C91.6017913,25.7952272 90.9158686,25.412314 90.342989,24.9140196 C89.7681934,24.4182611 89.3077182,23.7874687 88.9756141,23.0412951 C88.6454259,22.3014611 88.4768192,21.4424423 88.4768192,20.4908649 L88.4768192,13.4754385 C88.4768192,12.5238611 88.6454259,11.6642083 88.9756141,10.9243743 C89.3070795,10.1801026 89.766916,9.55057811 90.3436276,9.05101585 C90.9133139,8.55715925 91.598598,8.17297811 92.3784041,7.90988377 C93.9239656,7.3919366 95.7460677,7.3919366 97.2903519,7.90988377 C98.0695193,8.17171019 98.7548034,8.55715925 99.3264057,9.05101585 C99.9031173,9.55184604 100.362954,10.1813706 100.694419,10.9243743 C101.024607,11.6673781 101.191937,12.5251291 101.191937,13.4754385 L101.191937,15.3164649 C101.191937,15.7615064 100.829177,16.0658083 100.111321,16.222397 L90.7913295,18.8045253 C90.6061176,18.8514385 90.4624187,18.9218083 90.3474596,19.0194385 C90.2720975,19.0834687 90.2344165,19.2083592 90.2344165,19.3941102 L90.2344165,20.4908649 C90.2344165,21.1964649 90.3653421,21.81648 90.6240002,22.3325253 C90.8839355,22.8549102 91.2320062,23.2879064 91.6579936,23.6188347 C92.0929223,23.9592725 92.5949104,24.2198309 93.1492689,24.3954385 C94.6392668,24.8709102 96.1650298,24.7048121 97.490253,24.0233026 C98.2847483,23.614397 98.9029729,22.7864423 99.3264057,21.5628951 C99.4713819,21.1159517 99.8124273,21.0677706 99.9516556,21.0677706 L100.420433,21.0677706 C100.811933,21.0677706 101.064843,21.3410083 101.064843,21.7619592 C101.064843,21.7904875 101.061011,21.8209177 101.053347,21.849446 C100.665041,23.3253102 99.9024786,24.4740498 98.7880138,25.2646008 C97.6818516,26.049446 96.3521577,26.4463064 94.8346973,26.4463064" id="Fill-28" fill="#61B9AA"></path>
                    <path d="M106.347406,1.28529509 C106.347406,1.08052528 106.447038,0.977823396 106.6463,0.977823396 L107.115078,0.977823396 C107.313702,0.977823396 107.413971,1.08052528 107.413971,1.28529509 L107.413971,7.29145358 C107.413971,7.84870642 107.683487,8.12638189 108.223795,8.12638189 L112.700814,8.12638189 C112.899438,8.12638189 112.999707,8.22781585 112.999707,8.4319517 L112.999707,8.91503094 C112.999707,9.11916679 112.899438,9.22123472 112.700814,9.22123472 L108.223795,9.22123472 C107.683487,9.22123472 107.413971,9.50017811 107.413971,10.0542611 L107.413971,21.1048574 C107.413971,22.5078158 107.725638,23.5094762 108.352166,24.1079366 C108.976138,24.7076649 109.844718,25.0062611 110.952796,25.0062611 C111.77667,25.0062611 112.445349,24.8693253 112.957556,24.5903819 C113.467847,24.3127064 113.837632,23.9405706 114.064995,23.4727064 C114.122475,23.2977328 114.221467,23.2089781 114.363889,23.2089781 L114.833305,23.2089781 C115.060669,23.2089781 115.173712,23.3262611 115.173712,23.5595592 C114.918248,24.3209479 114.42073,24.9352574 113.68116,25.4024875 C112.941589,25.8703517 112.032774,26.1036498 110.952796,26.1036498 C109.588615,26.1036498 108.479898,25.6795291 107.626646,24.8319215 C106.773394,23.9849479 106.347406,22.8152875 106.347406,21.3235743 L106.347406,10.0542611 C106.347406,9.50017811 106.077252,9.22123472 105.536945,9.22123472 L103.618404,9.22123472 C103.419142,9.22123472 103.320149,9.11916679 103.320149,8.91503094 L103.320149,8.4319517 C103.320149,8.22781585 103.419142,8.12638189 103.618404,8.12638189 L105.536945,8.12638189 C106.077252,8.12638189 106.347406,7.84870642 106.347406,7.29145358 L106.347406,1.28529509 Z" id="Fill-30" fill="#61B9AA"></path>
                    <path d="M103.666176,8.87616906 L105.537455,8.87743698 C106.271916,8.87743698 106.692795,9.3072634 106.692795,10.0540709 L106.692795,21.3233842 C106.692795,22.7136634 107.089404,23.812954 107.871126,24.5908257 C108.663705,25.3775728 109.672152,25.7598521 110.952669,25.7598521 C111.961116,25.7598521 112.816284,25.542403 113.49582,25.1132106 C114.137036,24.7074747 114.566856,24.199037 114.807631,23.560003 L114.363761,23.5523955 C114.117877,24.1521238 113.69636,24.5800483 113.122841,24.8906898 C112.56529,25.1962596 111.834661,25.3503125 110.952669,25.3503125 C109.755178,25.3503125 108.799101,25.0155804 108.111901,24.3543577 C107.419592,23.6931351 107.068328,22.5995502 107.068328,21.1053011 L107.068328,10.0540709 C107.068328,9.3072634 107.489206,8.87743698 108.223667,8.87743698 L112.652148,8.87743698 L112.653425,8.47106717 L108.223667,8.46979925 C107.489206,8.46979925 107.068328,8.03997283 107.068328,7.2912634 L107.068328,1.32124075 L106.692795,1.32124075 L106.692795,7.2912634 C106.692795,8.03997283 106.271916,8.46979925 105.537455,8.46979925 L103.667454,8.46979925 L103.666176,8.87616906 Z M110.952669,26.4464332 C109.499713,26.4464332 108.29839,25.9849087 107.381911,25.0739049 C106.466708,24.165437 106.001763,22.9025842 106.001763,21.3233842 L106.001763,10.0540709 C106.001763,9.64199547 105.838265,9.56465208 105.537455,9.56465208 L103.618277,9.56465208 C103.227416,9.56465208 102.974506,9.30979925 102.974506,8.91484075 L102.974506,8.43239547 C102.974506,8.03743698 103.227416,7.78258415 103.618277,7.78258415 L105.537455,7.78258415 C105.838265,7.78258415 106.001763,7.70524075 106.001763,7.2912634 L106.001763,1.28510491 C106.001763,0.890146415 106.254673,0.63402566 106.646172,0.63402566 L107.11495,0.63402566 C107.507088,0.63402566 107.75936,0.890146415 107.75936,1.28510491 L107.75936,7.2912634 C107.75936,7.70524075 107.922857,7.78258415 108.223667,7.78258415 L112.700686,7.78258415 C113.092824,7.78258415 113.345096,8.03743698 113.345096,8.43239547 L113.345096,8.91484075 C113.345096,9.30979925 113.092824,9.56465208 112.700686,9.56465208 L108.223667,9.56465208 C107.922857,9.56465208 107.75936,9.64199547 107.75936,10.0540709 L107.75936,21.1053011 C107.75936,22.4055577 108.039732,23.3336785 108.592175,23.8598672 C109.146533,24.3942974 109.941028,24.6637313 110.952669,24.6637313 C111.716508,24.6637313 112.335372,24.5375728 112.790737,24.2896936 C113.241633,24.0449842 113.556493,23.728637 113.753839,23.3235351 C113.883488,22.9139955 114.224533,22.8658143 114.363761,22.8658143 L114.833178,22.8658143 C115.250863,22.8658143 115.519739,23.1390521 115.519739,23.560003 C115.519739,23.5967728 115.513991,23.6329087 115.501857,23.6684106 C115.222123,24.5033389 114.671596,25.1829464 113.867521,25.6913842 C113.074942,26.1922143 112.094596,26.4464332 110.952669,26.4464332 Z" id="Fill-32" fill="#61B9AA"></path>
                    <path d="M119.224808,25.5780317 C119.224808,25.7828015 119.124538,25.8842355 118.926553,25.8842355 L118.457136,25.8842355 C118.257874,25.8842355 118.158243,25.7828015 118.158243,25.5780317 L118.158243,8.43252226 C118.158243,8.22775245 118.257874,8.12631849 118.457136,8.12631849 L118.926553,8.12631849 C119.124538,8.12631849 119.224808,8.22775245 119.224808,8.43252226 L119.224808,25.5780317 Z M119.224808,4.61733736 C119.224808,4.82210717 119.124538,4.92354113 118.926553,4.92354113 L118.457136,4.92354113 C118.257874,4.92354113 118.158243,4.82210717 118.158243,4.61733736 L118.158243,3.73993358 C118.158243,3.53706566 118.257874,3.43372981 118.457136,3.43372981 L118.926553,3.43372981 C119.124538,3.43372981 119.224808,3.53706566 119.224808,3.73993358 L119.224808,4.61733736 Z" id="Fill-34" fill="#61B9AA"></path>
                    <path d="M118.503823,4.57891925 L118.879356,4.58018717 L118.879356,3.77695698 L118.506377,3.77695698 L118.503823,4.57891925 Z M118.926617,5.26740226 L118.4572,5.26740226 C118.065062,5.26740226 117.813429,5.01254943 117.813429,4.61759094 L117.813429,3.74018717 C117.813429,3.34522868 118.065062,3.09037585 118.4572,3.09037585 L118.926617,3.09037585 C119.317478,3.09037585 119.570388,3.34522868 119.570388,3.74018717 L119.570388,4.61759094 C119.570388,5.01254943 119.317478,5.26740226 118.926617,5.26740226 Z M118.503823,25.5396136 L118.879356,25.5408815 L118.879356,8.47081358 L118.507016,8.46954566 L118.503823,25.5396136 Z M118.926617,26.2280966 L118.4572,26.2280966 C118.065062,26.2280966 117.813429,25.9732438 117.813429,25.5782853 L117.813429,8.43214189 C117.813429,8.0371834 118.065062,7.78233057 118.4572,7.78233057 L118.926617,7.78233057 C119.317478,7.78233057 119.570388,8.0371834 119.570388,8.43214189 L119.570388,25.5782853 C119.570388,25.9732438 119.317478,26.2280966 118.926617,26.2280966 Z" id="Fill-36" fill="#61B9AA"></path>
                    <path d="M137.218401,8.43226868 C137.048517,9.36863094 136.657017,10.3905781 136.046457,11.50128 C135.434619,12.6132498 134.787654,13.5483442 134.106202,14.3084649 C133.90694,14.5430309 133.757493,14.7535064 133.6585,14.9436951 C133.55823,15.1345177 133.509054,15.3602083 133.509054,15.6239366 C133.509054,15.8585026 133.537155,16.0620045 133.593996,16.238246 L137.176249,25.5777781 C137.176249,25.7831819 137.07598,25.8846158 136.877994,25.8846158 L136.451368,25.8846158 C136.280207,25.8846158 136.167164,25.7971291 136.109684,25.6208875 L132.61365,16.67568 C132.443127,16.3257328 132.172334,16.1488574 131.803188,16.1488574 C131.661405,16.1488574 131.504933,16.1938687 131.33441,16.2807215 C130.566739,16.6027743 129.741588,16.8810838 128.861512,17.1143819 C127.97952,17.3489479 127.140957,17.4801781 126.345823,17.5093404 C125.804876,17.5093404 125.535361,17.7863819 125.535361,18.3417328 L125.535361,25.5777781 C125.535361,25.7831819 125.435091,25.8846158 125.236467,25.8846158 L124.76769,25.8846158 C124.568427,25.8846158 124.468796,25.7831819 124.468796,25.5777781 L124.468796,1.28561208 C124.468796,1.08084226 124.568427,0.977506415 124.76769,0.977506415 L125.236467,0.977506415 C125.435091,0.977506415 125.535361,1.08084226 125.535361,1.28561208 L125.535361,15.5795592 C125.535361,16.1349102 125.762725,16.4125857 126.216813,16.4125857 C126.757121,16.4125857 127.496053,16.3181253 128.434247,16.1279366 C129.372441,15.9383819 130.338736,15.5580045 131.33441,14.9880725 C132.328807,14.4175064 133.267001,13.6136423 134.148354,12.57648 C135.029707,11.5386838 135.683697,10.1718611 136.109684,8.47664604 C136.138424,8.41832151 136.17355,8.34478189 136.216979,8.25666113 C136.259131,8.16917434 136.351737,8.12606491 136.494159,8.12606491 L136.920146,8.12606491 C137.119409,8.12606491 137.218401,8.22749887 137.218401,8.43226868" id="Fill-38" fill="#61B9AA"></path>
                    <g id="Group-42" transform="translate(123.900387, 0.456516)">
                        <mask id="mask-2" fill="white">
                            <use xlink:href="#path-1"></use>
                        </mask>
                        <g id="Clip-41"></g>
                        <path d="M0.913988885,25.0830974 L1.28760603,25.0843653 L1.28952202,17.8850898 C1.28952202,17.1382823 1.71040013,16.7090898 2.44486119,16.7090898 C3.19784344,16.6818294 4.01852384,16.5531351 4.87113732,16.3261766 C5.7339694,16.0979502 6.55081783,15.8234445 7.29932944,15.5077313 C7.49539861,15.4062974 7.70679566,15.3492408 7.90222617,15.3492408 C8.40740765,15.3492408 8.79571401,15.5983879 9.02435493,16.0706898 L12.5312468,25.0399879 L12.8882588,25.0754898 L9.37050962,15.9033238 C9.29642485,15.6750974 9.26321444,15.4392634 9.26321444,15.1672936 C9.26321444,14.8477766 9.32708062,14.5662974 9.45161967,14.3285615 C9.5614695,14.118086 9.72177361,13.8904936 9.94147326,13.631837 C10.6101522,12.8856634 11.2481753,11.9626143 11.8421307,10.8804408 C12.4118171,9.84391245 12.7879888,8.88028981 12.9591502,8.01302943 L12.5963903,8.01302943 L12.5216669,8.16771623 C12.1071754,9.8413766 11.4244459,11.2684257 10.5124369,12.3398219 C9.61192378,13.4010747 8.63477124,14.2385389 7.60652576,14.8281238 C6.58019627,15.4164408 5.56919466,15.8126672 4.60226071,16.0079275 C3.64937732,16.2006521 2.87978987,16.3001842 2.31649017,16.3001842 C2.00801653,16.3001842 1.28952202,16.185437 1.28952202,15.1229162 L1.28952202,0.864470943 L0.916543532,0.864470943 L0.913988885,25.0830974 Z M12.9776714,25.7715804 L12.5510453,25.7715804 C12.2285211,25.7715804 11.9839137,25.5883653 11.8804504,25.2688483 L8.39080244,16.3439275 C8.28861655,16.135354 8.13916969,16.0358219 7.90222617,16.0358219 C7.81920014,16.0358219 7.71190496,16.06752 7.5924752,16.1290143 C6.790316,16.4669162 5.9428118,16.7515653 5.05060129,16.9893011 C4.14753352,17.2283049 3.27512152,17.3658747 2.45763443,17.3963049 C2.14405149,17.3963049 1.98055407,17.4730143 1.98055407,17.8850898 L1.98055407,25.1217691 C1.98055407,25.5167275 1.727644,25.7715804 1.33614433,25.7715804 L0.867366574,25.7715804 C0.475228237,25.7715804 0.22295683,25.5167275 0.22295683,25.1217691 L0.22295683,0.828969057 C0.22295683,0.433376604 0.475228237,0.177255849 0.867366574,0.177255849 L1.33614433,0.177255849 C1.727644,0.177255849 1.98055407,0.433376604 1.98055407,0.828969057 L1.98055407,15.1229162 C1.98055407,15.6129691 2.16704331,15.6129691 2.31649017,15.6129691 C2.83380622,15.6129691 3.55677136,15.5191426 4.46494843,15.3346596 C5.35907493,15.1546143 6.30046241,14.7850143 7.2616484,14.2341011 C8.21900242,13.6844558 9.13484342,12.8983426 9.98362494,11.8992181 C10.8266585,10.9064332 11.4627656,9.57321057 11.8740638,7.93758792 L12.0037122,7.65230491 C12.0637464,7.52931623 12.2189412,7.32581434 12.5938357,7.32581434 L13.0198231,7.32581434 C13.4113228,7.32581434 13.6635942,7.58066717 13.6635942,7.97562566 C13.6635942,7.99591245 13.6623168,8.01746717 13.6584849,8.03712 C13.4834915,9.00074264 13.0760253,10.0683351 12.4494981,11.2094672 C11.8293575,12.3360181 11.1619559,13.3021766 10.4638986,14.0794143 C10.2863506,14.2898898 10.1503157,14.4813464 10.0640963,14.6449087 C9.99128888,14.7850143 9.95360783,14.959354 9.95360783,15.1672936 C9.95360783,15.3650898 9.97659966,15.5362596 10.0225833,15.6769992 L13.5984507,24.9994143 C13.6137785,25.03872 13.6208038,25.0799275 13.6208038,25.1217691 C13.6208038,25.5167275 13.3685324,25.7715804 12.9776714,25.7715804 Z" id="Fill-40" fill="#61B9AA" mask="url(#mask-2)"></path>
                    </g>
                    <path d="M151.161027,18.6929479 C151.161027,18.137597 150.890234,17.8599215 150.351204,17.8599215 L144.594945,17.8599215 C144.19642,17.8599215 143.799172,17.8966913 143.400647,17.969597 C143.002761,18.0431366 142.647026,18.2035291 142.335359,18.4520423 C142.021138,18.6999215 141.765673,19.0505026 141.567688,19.5044196 C141.368425,19.9583366 141.268794,20.5783517 141.268794,21.3682687 C141.268794,22.0979592 141.417602,22.6976875 141.716496,23.1661857 C142.01539,23.6340498 142.398587,24.0061857 142.868003,24.2838611 C143.336781,24.5615366 143.870064,24.7523592 144.467212,24.8537932 C145.063723,24.9571291 145.645543,25.0065781 146.214591,25.0065781 C146.81174,25.0065781 147.408889,24.9355743 148.006037,24.7878611 C148.602548,24.6420498 149.13583,24.4011442 149.604608,24.0651442 C150.074024,23.7285102 150.450835,23.2904423 150.735039,22.7490385 C151.018605,22.2082687 151.161027,21.5426083 151.161027,20.7539592 L151.161027,18.6929479 Z M151.161027,13.500163 C151.161027,12.7362385 151.012218,12.0680423 150.713963,11.4943064 C150.415708,10.9212045 150.024209,10.4508045 149.540742,10.0824725 C149.057275,9.71604226 148.51058,9.43709887 147.899381,9.24564226 C147.288182,9.05481962 146.684008,8.95909132 146.087497,8.95909132 C145.091185,8.95909132 144.175344,9.18541585 143.336781,9.63743094 C142.498218,10.0913479 141.851254,10.9757253 141.397165,12.291197 C141.368425,12.4661706 141.268794,12.5530234 141.098272,12.5530234 L140.629494,12.5530234 C140.430231,12.5530234 140.3306,12.4376423 140.3306,12.2030762 C140.671645,10.8001177 141.353736,9.72618566 142.377511,8.98064604 C143.400647,8.23447245 144.637096,7.86297057 146.087497,7.86297057 C146.911371,7.86297057 147.700118,7.98722717 148.453739,8.23447245 C149.206083,8.48361962 149.86135,8.8418083 150.415708,9.30967245 C150.968789,9.7775366 151.410105,10.3620498 151.7371,11.0632121 C152.063456,11.7643743 152.227592,12.5695064 152.227592,13.4754385 L152.227592,20.7539592 C152.227592,21.631997 152.07112,22.4054309 151.758175,23.0774309 C151.444592,23.7500649 151.018605,24.3123894 150.478936,24.7663064 C149.938628,25.2202234 149.299328,25.5549555 148.560396,25.7743064 C147.820826,25.9949253 147.039103,26.1033328 146.214591,26.1033328 C145.418819,26.1033328 144.658811,26.015846 143.93393,25.8408725 C143.209049,25.6684347 142.569748,25.3850536 142.01539,24.991363 C141.461031,24.5989404 141.019716,24.1038158 140.692721,23.5066234 C140.366365,22.9113328 140.202868,22.2057328 140.202868,21.3898234 C140.202868,19.7034838 140.642906,18.5097328 141.524259,17.8111064 C142.405612,17.11248 143.443438,16.7631668 144.637096,16.7631668 L150.351204,16.7631668 C150.890234,16.7631668 151.161027,16.4842234 151.161027,15.9263366 L151.161027,13.500163 Z" id="Fill-43" fill="#61B9AA"></path>
                    <g id="Group-47" transform="translate(139.228270, 7.430101)">
                        <mask id="mask-4" fill="white">
                            <use xlink:href="#path-3"></use>
                        </mask>
                        <g id="Clip-46"></g>
                        <path d="M5.36654727,10.7731743 C4.99356879,10.7731743 4.61292636,10.8080423 4.23547725,10.8777781 C3.88932256,10.9411743 3.59234483,11.0755743 3.32346821,11.2898536 C3.05523026,11.501597 2.83042131,11.8109706 2.65606664,12.2103668 C2.47660268,12.6199064 2.38591271,13.2006158 2.38591271,13.937914 C2.38591271,14.5991366 2.5181157,15.1424423 2.77996703,15.5526158 C3.04756632,15.9722989 3.39691432,16.3095668 3.81587645,16.5593479 C4.24761182,16.8148347 4.74576802,16.9917102 5.2975718,17.0855366 C6.45865893,17.2858687 7.59100628,17.2960121 8.69397519,17.0240423 C9.24641764,16.8896423 9.74393517,16.6652196 10.1737546,16.3577479 C10.597826,16.0521781 10.9427033,15.6496121 11.200084,15.1608272 C11.4568261,14.6720423 11.5871131,14.0539291 11.5871131,13.3236045 L11.5871131,11.2625932 C11.5871131,10.8505177 11.4236157,10.7731743 11.1234446,10.7731743 L5.36654727,10.7731743 Z M6.98619357,17.9198309 C6.39607008,17.9198309 5.78742539,17.8659442 5.17941937,17.7613404 C4.54458955,17.6542008 3.96660063,17.4462611 3.46269648,17.1489328 C2.94793508,16.843997 2.52194767,16.4300196 2.19623016,15.919046 C1.86412603,15.3979291 1.69488065,14.7310008 1.69488065,13.937914 C1.69488065,13.0934762 1.80153717,12.4392272 2.02187549,11.9371291 C2.24221381,11.434397 2.53408224,11.0350008 2.89173284,10.7535215 C3.24555147,10.4707743 3.65557234,10.2862913 4.10966087,10.2026083 C4.52926167,10.1258989 4.95205577,10.0859592 5.36654727,10.0859592 L11.1234446,10.0859592 C11.857267,10.0859592 12.2781451,10.5157857 12.2781451,11.2625932 L12.2781451,13.3236045 C12.2781451,14.1661404 12.121673,14.8901253 11.8131994,15.4784423 C11.506003,16.0623215 11.0908729,16.5460347 10.5793048,16.9130989 C10.076678,17.2731894 9.49868904,17.5350158 8.86066592,17.6909706 C8.24563461,17.8431215 7.61463677,17.9198309 6.98619357,17.9198309 Z M5.40869895,9.67705358 C4.30062075,9.67705358 3.32602286,10.0029102 2.51172908,10.6489177 C1.72106579,11.2759064 1.31998618,12.3891442 1.31998618,13.9594687 C1.31998618,14.7138838 1.47071037,15.3713026 1.76832676,15.9114385 C2.06913646,16.4617177 2.47915733,16.9226083 2.98689345,17.2820649 C3.50357084,17.6484951 4.10838355,17.9160272 4.78600371,18.0776875 C6.20063957,18.4187592 7.85349628,18.4270008 9.23300574,18.0149253 C9.92467646,17.8101555 10.5282118,17.4938083 11.0270067,17.0741253 C11.5264402,16.6544423 11.9262425,16.1263517 12.216195,15.5044347 C12.5067861,14.8799819 12.6536783,14.1471215 12.6536783,13.3236045 L12.6536783,6.04508377 C12.6536783,5.19367245 12.4997608,4.43038189 12.1951191,3.77803472 C11.8911161,3.12505358 11.4759859,2.5754083 10.9631405,2.14051019 C10.4464631,1.70497811 9.82504522,1.36454038 9.11549197,1.12997434 C8.40082943,0.89477434 7.6408219,0.776223396 6.85909987,0.776223396 C5.49044766,0.776223396 4.31083934,1.12997434 3.35412398,1.82669887 C2.42040044,2.50630642 1.78237732,3.49972528 1.45665981,4.77969509 L1.86987398,4.77969509 C2.32268519,3.35708377 3.02968379,2.40043472 3.94297015,1.90721208 C5.35888333,1.14265358 7.05453038,0.950563019 8.77380791,1.48752906 C9.4207723,1.69103094 10.0083411,1.99152906 10.5224639,2.37951396 C11.0448892,2.7770083 11.472154,3.2911517 11.7934008,3.90672906 C12.1146477,4.52737811 12.2781451,5.25516679 12.2781451,6.0698083 L12.2781451,8.49598189 C12.2781451,9.24595925 11.857267,9.67705358 11.1234446,9.67705358 L5.40869895,9.67705358 Z M6.98619357,19.0165857 C6.16742916,19.0165857 5.37229523,18.9246611 4.62378361,18.7446158 C3.85994412,18.5614008 3.17338269,18.2583668 2.58581385,17.8399517 C1.99121972,17.4190008 1.51222338,16.8814008 1.16159806,16.2398309 C0.80777943,15.5982611 0.629592791,14.8311668 0.629592791,13.9594687 C0.629592791,12.1704272 1.1175304,10.8765102 2.08063237,10.1132196 C3.02010386,9.36768 4.13967798,8.98983849 5.40869895,8.98983849 L11.1234446,8.98983849 C11.4236157,8.98983849 11.5871131,8.91059321 11.5871131,8.49598189 L11.5871131,6.0698083 C11.5871131,5.36547623 11.4491621,4.74419321 11.1790082,4.2218083 C10.905661,3.69625358 10.5422624,3.26072151 10.1022244,2.92472151 C9.6532452,2.58428377 9.13592915,2.32055547 8.56752016,2.14304604 C7.02706792,1.66186868 5.52429674,1.83240453 4.27315829,2.50947623 C3.51698273,2.91774792 2.91855664,3.74760453 2.49512387,4.97305358 C2.4529722,5.25643472 2.20964205,5.46691019 1.86987398,5.46691019 L1.40109623,5.46691019 C1.00959655,5.46691019 0.756686487,5.19367245 0.756686487,4.77272151 C1.12519434,3.21507623 1.85901673,2.06570264 2.94474177,1.27451774 C4.02280287,0.488404528 5.33972348,0.0890083019 6.85909987,0.0890083019 C7.71490667,0.0890083019 8.54708298,0.220872453 9.33455296,0.478261132 C10.1277709,0.741989434 10.8271056,1.1255366 11.4114811,1.61812528 C12.0016046,2.11768755 12.4754916,2.74594415 12.8229236,3.48894792 C13.169717,4.23321962 13.3447103,5.09350642 13.3447103,6.04508377 L13.3447103,13.3236045 C13.3447103,14.2472875 13.1761036,15.0777781 12.8433608,15.7916196 C12.5112567,16.5060951 12.0501429,17.1146989 11.47407,17.5984121 C10.901829,18.0789555 10.2139902,18.440314 9.43099089,18.6736121 C8.66587407,18.9005706 7.84327769,19.0165857 6.98619357,19.0165857 Z" id="Fill-45" fill="#61B9AA" mask="url(#mask-4)"></path>
                    </g>
                </g>
            </g>
        </g>
    </g>
</svg>